<?xml version="1.0" encoding="iso-8859-1"?>
<!-- Uploaded to: SVG Repo, www.svgrepo.com, Generator: SVG Repo Mixer Tools -->
<!DOCTYPE svg PUBLIC "-//W3C//DTD SVG 1.1//EN" "http://www.w3.org/Graphics/SVG/1.1/DTD/svg11.dtd">
<svg fill="#000000" height="800px" width="800px" version="1.1" id="Capa_1" xmlns="http://www.w3.org/2000/svg" xmlns:xlink="http://www.w3.org/1999/xlink" 
	 viewBox="0 0 219.667 219.667" xml:space="preserve">
<path d="M176.375,219.667h-8.667c-1.104,0-2-0.896-2-2v-18.892l-15.726-15.485c-0.134,0.139-0.288,0.259-0.46,0.355
	c-0.582,0.328-1.29,0.343-1.885,0.04l-10.833-5.5c-0.243-0.123-0.457-0.294-0.631-0.503l-4.167-5
	c-0.268-0.322-0.429-0.72-0.458-1.138l-0.223-3.13l-7.449-3.931v0.35c0,0.407-0.125,0.805-0.356,1.14l-10.167,14.666
	c-0.374,0.539-0.988,0.86-1.644,0.86h-3.75c-0.656,0-1.27-0.321-1.644-0.86l-10.167-14.666c-0.232-0.335-0.356-0.732-0.356-1.14
	v-0.35l-7.449,3.931l-0.223,3.13c-0.03,0.418-0.19,0.815-0.458,1.138l-4.167,5c-0.174,0.209-0.389,0.38-0.631,0.503l-10.833,5.5
	c-0.596,0.303-1.303,0.288-1.885-0.04c-0.172-0.097-0.327-0.217-0.46-0.355l-15.726,15.485v18.892c0,1.104-0.896,2-2,2h-8.667
	c-0.445,0-0.877-0.148-1.228-0.421l-7.5-5.833c-0.498-0.388-0.784-0.986-0.771-1.617l1.667-87.834
	c0.008-0.408,0.14-0.805,0.38-1.135l3.102-4.284l-0.138-5.089c-0.061-2.216,0.848-4.339,2.491-5.826
	c1.643-1.486,3.846-2.174,6.043-1.899l0,0c3.775,0.48,6.622,3.713,6.622,7.519v47.697l14.797-7.333
	c1.01-2.522,6.931-17.735,7.371-28.458c0.305-7.421-0.088-14.828-0.544-21.607c-18.794-9.023-30.874-28.139-30.874-49.03v-0.141
	C44.708,24.393,69.101,0,99.083,0h21.5c29.982,0,54.375,24.393,54.375,54.375v0.141c0,20.892-12.08,40.007-30.874,49.03
	c-0.456,6.779-0.849,14.187-0.544,21.607c0.44,10.723,6.361,25.936,7.371,28.458l14.797,7.333v-47.697
	c0-3.806,2.847-7.038,6.622-7.519c2.197-0.274,4.4,0.413,6.043,1.899c1.643,1.487,2.551,3.61,2.491,5.826l-0.138,5.089l3.102,4.284
	c0.24,0.33,0.372,0.727,0.38,1.135l1.667,87.834c0.012,0.631-0.274,1.229-0.771,1.617l-7.5,5.833
	C177.252,219.519,176.82,219.667,176.375,219.667z M169.708,215.667h5.98l6.167-4.797l-1.636-86.205l-3.132-4.325
	c-0.258-0.356-0.392-0.787-0.379-1.228l0.156-5.768c0.029-1.046-0.4-2.049-1.176-2.751c-0.776-0.702-1.817-1.031-2.854-0.896
	c-1.783,0.227-3.127,1.753-3.127,3.55V215.667z M43.978,215.667h5.98v-102.42c0-1.797-1.344-3.323-3.127-3.55h0
	c-1.036-0.135-2.078,0.194-2.854,0.896s-1.205,1.705-1.176,2.751l0.156,5.768c0.012,0.44-0.121,0.871-0.379,1.228l-3.132,4.325
	l-1.636,86.205L43.978,215.667z M150.778,178.46l14.93,14.701v-27.753l-14.5-7.186v8.18
	C151.208,170.545,150.971,175.288,150.778,178.46z M53.958,165.408v27.753l14.93-14.701c-0.193-3.172-0.43-7.915-0.43-12.058v-8.18
	L53.958,165.408z M72.458,155.127v11.275c0,4.234,0.263,9.233,0.457,12.348l7.77-3.944l3.49-4.188l4.616-64.718V24.747
	c-1.45,1.877-3.032,4.092-4.07,6.031c-2.421,4.518-4.959,16.508-5.432,25.659c-0.37,7.153-0.701,16.77-0.705,25.15
	c0.001,3.565,0.062,6.898,0.205,9.713c0.135,2.654,0.33,5.44,0.537,8.391c0.546,7.807,1.166,16.655,0.797,25.626
	C79.649,136.848,73.535,152.459,72.458,155.127z M138.981,174.806l7.77,3.944c0.194-3.114,0.457-8.115,0.457-12.348v-11.275
	c-1.077-2.668-7.191-18.279-7.665-29.81c-0.369-8.971,0.251-17.819,0.797-25.626c0.207-2.95,0.402-5.736,0.537-8.391
	c0.143-2.811,0.204-6.14,0.205-9.7c-0.004-8.385-0.334-18.007-0.705-25.163c-0.473-9.151-3.011-21.142-5.432-25.659
	c-1.041-1.941-2.622-4.156-4.071-6.032v81.153l4.616,64.718L138.981,174.806z M109.006,177.5h1.655l9.214-13.291v-26.204
	l-6.063-2.505h-7.956l-6.063,2.505v26.204L109.006,177.5z M123.875,159.961l7.094,3.744l-1.112-15.592l-5.982-3.026V159.961z
	 M89.81,148.113l-1.112,15.592l7.094-3.744v-14.874L89.81,148.113z M123.875,140.604l5.67,2.868l-2.494-34.97
	c-1.464,0.175-2.933,0.291-4.395,0.348c-0.101,0.016-0.203,0.023-0.308,0.023h-0.435c-0.444,0.011-0.887,0.017-1.33,0.017h-21.5
	c-2.143,0-4.31-0.13-6.467-0.388l-2.494,34.97l5.67-2.868v-3.938c0-0.81,0.488-1.539,1.236-1.849l7.667-3.167
	c0.242-0.1,0.501-0.151,0.764-0.151h8.75c0.262,0,0.521,0.052,0.764,0.151l7.667,3.167c0.748,0.31,1.236,1.039,1.236,1.849V140.604z
	 M99.792,104.874h20.556V4.033H99.792V104.874z M92.792,104.495c0.999,0.125,2,0.221,3,0.286V4.106
	c-26.249,1.7-47.083,23.597-47.083,50.269v0.141c0,18.576,10.307,35.636,26.532,44.369c-0.172-2.476-0.33-4.839-0.446-7.116
	c-0.149-2.944-0.211-6.44-0.209-10.172c-0.002-8.535,0.333-18.353,0.709-25.632c0.507-9.795,3.209-22.315,5.901-27.341h0
	c2.582-4.818,7.877-10.798,8.102-11.051c0.551-0.621,1.427-0.834,2.206-0.54c0.776,0.295,1.289,1.039,1.289,1.869V104.495z
	 M124.348,4.14v100.608c0.843-0.063,1.686-0.147,2.527-0.253V18.902c0-0.83,0.513-1.574,1.289-1.869
	c0.776-0.293,1.655-0.08,2.206,0.54c0.224,0.253,5.52,6.232,8.102,11.051c2.692,5.025,5.395,17.546,5.901,27.341
	c0.376,7.279,0.711,17.097,0.709,25.632c0.002,3.731-0.06,7.228-0.209,10.172c-0.116,2.277-0.274,4.641-0.446,7.116
	c16.225-8.733,26.532-25.793,26.532-44.369v-0.141C170.958,27.864,150.373,6.071,124.348,4.14z"/>
</svg>